<svg width="31" height="31" viewBox="0 0 31 31" fill="none" xmlns="http://www.w3.org/2000/svg">
<path d="M15.6605 27.1661C22.0049 27.1661 27.1481 22.0193 27.1481 15.6704C27.1481 9.32157 22.0049 4.1748 15.6605 4.1748C9.31603 4.1748 4.17285 9.32157 4.17285 15.6704C4.17285 22.0193 9.31603 27.1661 15.6605 27.1661Z" fill="#3E4357"/>
<path d="M15.6604 30.3412C23.7571 30.3412 30.3207 23.773 30.3207 15.6706C30.3207 7.56826 23.7571 1 15.6604 1C7.56367 1 1 7.56826 1 15.6706C1 23.773 7.56367 30.3412 15.6604 30.3412Z" stroke="#3E4357" stroke-miterlimit="10"/>
<path d="M28.5703 16.3844C28.9642 16.3844 29.2836 16.0648 29.2836 15.6706C29.2836 15.2764 28.9642 14.9568 28.5703 14.9568C28.1763 14.9568 27.8569 15.2764 27.8569 15.6706C27.8569 16.0648 28.1763 16.3844 28.5703 16.3844Z" fill="#3E4357"/>
<path d="M2.75043 16.3844C3.14439 16.3844 3.46376 16.0648 3.46376 15.6706C3.46376 15.2764 3.14439 14.9568 2.75043 14.9568C2.35648 14.9568 2.03711 15.2764 2.03711 15.6706C2.03711 16.0648 2.35648 16.3844 2.75043 16.3844Z" fill="#3E4357"/>
<path d="M21.3671 18.1274C21.2927 18.0136 20.7982 17.7727 20.7982 17.7727C20.6012 17.6764 19.1527 16.9669 18.8814 16.8662C18.6495 16.783 18.3825 16.6866 18.1462 17.0414C17.9668 17.3085 17.4416 17.9216 17.2666 18.1143C17.1484 18.25 17.0346 18.2938 16.7677 18.1625C16.7239 18.1406 15.4329 17.5888 14.5445 16.8005C13.7568 16.1042 13.2098 15.2415 13.0085 14.9043C12.886 14.6984 12.9647 14.6021 13.1179 14.4488C13.2098 14.3569 13.6212 13.862 13.6518 13.8182C13.7174 13.7175 13.8312 13.481 13.8312 13.481C13.9494 13.2489 13.875 13.0474 13.8093 12.9117C13.7612 12.8197 13.0216 11.0286 12.9472 10.8622C12.7372 10.3586 12.5096 10.3323 12.2952 10.341C12.1901 10.3498 11.2055 10.3542 10.8948 10.6958L10.8466 10.7571C10.5403 11.0811 9.90137 11.7599 9.90137 13.0693C9.90137 13.3715 9.94951 13.6868 10.0502 14.0372C10.234 14.6678 10.5884 15.3597 11.0611 15.9903C11.0698 16.0035 11.7919 17.0019 12.1507 17.418C13.2886 18.7274 14.5708 19.6952 15.8662 20.2032C17.5204 20.8513 18.2293 21.0002 18.6319 21.0002C18.807 21.0002 19.179 20.9126 19.2577 20.9039C19.7654 20.8601 20.9645 20.2339 21.2183 19.5288C21.4546 18.8588 21.459 18.2763 21.3671 18.1274Z" fill="white"/>
</svg>
