<svg width="31" height="31" viewBox="0 0 31 31" fill="none" xmlns="http://www.w3.org/2000/svg">
<path d="M15.6605 27.1662C22.0049 27.1662 27.1481 22.0194 27.1481 15.6706C27.1481 9.32169 22.0049 4.17493 15.6605 4.17493C9.31603 4.17493 4.17285 9.32169 4.17285 15.6706C4.17285 22.0194 9.31603 27.1662 15.6605 27.1662Z" fill="#3E4357"/>
<path d="M15.6604 30.3412C23.7571 30.3412 30.3207 23.773 30.3207 15.6706C30.3207 7.56826 23.7571 1 15.6604 1C7.56367 1 1 7.56826 1 15.6706C1 23.773 7.56367 30.3412 15.6604 30.3412Z" stroke="#3E4357" stroke-miterlimit="10"/>
<path d="M28.5703 16.3847C28.9642 16.3847 29.2836 16.0651 29.2836 15.6709C29.2836 15.2766 28.9642 14.957 28.5703 14.957C28.1763 14.957 27.8569 15.2766 27.8569 15.6709C27.8569 16.0651 28.1763 16.3847 28.5703 16.3847Z" fill="#3E4357"/>
<path d="M2.75044 16.3845C3.1444 16.3845 3.46375 16.065 3.46375 15.6707C3.46375 15.2765 3.1444 14.9569 2.75044 14.9569C2.35648 14.9569 2.03711 15.2765 2.03711 15.6707C2.03711 16.065 2.35648 16.3845 2.75044 16.3845Z" fill="#3E4357"/>
<path d="M21.3758 11.265H9.94071C9.39805 11.265 8.95605 11.7073 8.95605 12.2504V19.0908C8.95605 19.6338 9.39805 20.0761 9.94071 20.0761H21.3758C21.9184 20.0761 22.3604 19.6338 22.3604 19.0908V12.2504C22.3648 11.7073 21.9228 11.265 21.3758 11.265ZM21.5683 12.4036L15.783 15.618C15.748 15.6355 15.713 15.6487 15.6736 15.6487H15.6429C15.6035 15.6487 15.5642 15.6399 15.5335 15.618L9.74815 12.4036C9.63875 12.3423 9.59935 12.2022 9.66062 12.0927C9.72189 11.9832 9.86194 11.9438 9.97134 12.0051L15.6604 15.1669L21.3495 12.0051C21.4589 11.9438 21.599 11.9832 21.6602 12.0927C21.7171 12.2066 21.6778 12.3423 21.5683 12.4036Z" fill="white"/>
</svg>
