<svg width="31" height="31" viewBox="0 0 31 31" fill="none" xmlns="http://www.w3.org/2000/svg">
<path d="M15.6605 27.1663C22.0049 27.1663 27.1481 22.0195 27.1481 15.6707C27.1481 9.32182 22.0049 4.17505 15.6605 4.17505C9.31603 4.17505 4.17285 9.32182 4.17285 15.6707C4.17285 22.0195 9.31603 27.1663 15.6605 27.1663Z" fill="#3E4357"/>
<path d="M15.6604 30.3412C23.7571 30.3412 30.3207 23.773 30.3207 15.6706C30.3207 7.56826 23.7571 1 15.6604 1C7.56367 1 1 7.56826 1 15.6706C1 23.773 7.56367 30.3412 15.6604 30.3412Z" stroke="#3E4357" stroke-miterlimit="10"/>
<path d="M28.5703 16.3847C28.9642 16.3847 29.2836 16.0651 29.2836 15.6709C29.2836 15.2766 28.9642 14.957 28.5703 14.957C28.1763 14.957 27.8569 15.2766 27.8569 15.6709C27.8569 16.0651 28.1763 16.3847 28.5703 16.3847Z" fill="#3E4357"/>
<path d="M2.75043 16.3847C3.14439 16.3847 3.46376 16.0651 3.46376 15.6709C3.46376 15.2766 3.14439 14.957 2.75043 14.957C2.35648 14.957 2.03711 15.2766 2.03711 15.6709C2.03711 16.0651 2.35648 16.3847 2.75043 16.3847Z" fill="#3E4357"/>
<path d="M16.9759 16.4153C18.7251 15.6862 19.5524 13.6762 18.8239 11.9258C18.0953 10.1754 16.0867 9.34752 14.3375 10.0766C12.5884 10.8057 11.761 12.8157 12.4896 14.5661C13.2182 16.3164 15.2268 17.1444 16.9759 16.4153Z" fill="white"/>
<path d="M15.6604 17.9478C13.3016 17.9478 11.2885 18.8849 10.4702 20.2119C10.1201 20.7855 10.5358 21.5213 11.2098 21.5213H20.111C20.7849 21.5213 21.2007 20.7855 20.8506 20.2119C20.0322 18.8849 18.0192 17.9478 15.6604 17.9478Z" fill="white"/>
</svg>
