<svg width="31" height="31" viewBox="0 0 31 31" fill="none" xmlns="http://www.w3.org/2000/svg">
<path d="M15.6605 27.1662C22.0049 27.1662 27.1481 22.0194 27.1481 15.6706C27.1481 9.32169 22.0049 4.17493 15.6605 4.17493C9.31603 4.17493 4.17285 9.32169 4.17285 15.6706C4.17285 22.0194 9.31603 27.1662 15.6605 27.1662Z" fill="#3E4357"/>
<path d="M15.6604 30.3412C23.7571 30.3412 30.3207 23.773 30.3207 15.6706C30.3207 7.56826 23.7571 1 15.6604 1C7.56367 1 1 7.56826 1 15.6706C1 23.773 7.56367 30.3412 15.6604 30.3412Z" stroke="#3E4357" stroke-miterlimit="10"/>
<path d="M28.5703 16.3847C28.9642 16.3847 29.2836 16.0651 29.2836 15.6709C29.2836 15.2766 28.9642 14.957 28.5703 14.957C28.1763 14.957 27.8569 15.2766 27.8569 15.6709C27.8569 16.0651 28.1763 16.3847 28.5703 16.3847Z" fill="#3E4357"/>
<path d="M2.75044 16.3846C3.1444 16.3846 3.46376 16.065 3.46376 15.6707C3.46376 15.2765 3.1444 14.9569 2.75044 14.9569C2.35648 14.9569 2.03711 15.2765 2.03711 15.6707C2.03711 16.065 2.35648 16.3846 2.75044 16.3846Z" fill="#3E4357"/>
<path d="M15.6603 20.58C18.4156 20.58 20.6492 18.3448 20.6492 15.5876C20.6492 12.8304 18.4156 10.5952 15.6603 10.5952C12.905 10.5952 10.6714 12.8304 10.6714 15.5876C10.6714 18.3448 12.905 20.58 15.6603 20.58Z" fill="#3E4357"/>
<path d="M15.6604 21.0224C12.6671 21.0224 10.2339 18.5875 10.2339 15.5921C10.2339 12.5966 12.6671 10.1617 15.6604 10.1617C18.6538 10.1617 21.087 12.5966 21.087 15.5921C21.087 18.5831 18.6538 21.0224 15.6604 21.0224ZM15.6604 11.0376C13.1528 11.0376 11.1135 13.0783 11.1135 15.5877C11.1135 18.097 13.1528 20.1378 15.6604 20.1378C18.168 20.1378 20.2073 18.097 20.2073 15.5877C20.2073 13.0783 18.168 11.0376 15.6604 11.0376Z" fill="white"/>
<path d="M16.1943 9.24658H15.1221V10.5779H16.1943V9.24658Z" fill="white"/>
<path d="M16.203 9.5661H15.1133C14.9251 9.5661 14.772 9.41283 14.772 9.22452V8.90921C14.772 8.7209 14.9251 8.56763 15.1133 8.56763H16.203C16.3912 8.56763 16.5443 8.7209 16.5443 8.90921V9.22452C16.5443 9.41283 16.3912 9.5661 16.203 9.5661Z" fill="white"/>
<path d="M11.4278 11.1742L10.8213 11.7811L11.5732 12.5336L12.1797 11.9267L11.4278 11.1742Z" fill="white"/>
<path d="M11.6124 11.3527L10.9954 11.9702C10.8903 12.0753 10.7153 12.0753 10.6103 11.9702L10.4308 11.7907C10.3258 11.6856 10.3258 11.5104 10.4308 11.4053L11.0479 10.7878C11.1529 10.6827 11.328 10.6827 11.433 10.7878L11.6124 10.9674C11.7218 11.0725 11.7218 11.2433 11.6124 11.3527Z" fill="white"/>
<path d="M20.4752 11.7821L19.8687 11.1752L19.1167 11.9276L19.7232 12.5346L20.4752 11.7821Z" fill="white"/>
<path d="M20.2993 11.9657L19.6823 11.3482C19.5773 11.2431 19.5773 11.0679 19.6823 10.9628L19.8617 10.7833C19.9667 10.6782 20.1418 10.6782 20.2468 10.7833L20.8639 11.4008C20.9689 11.5059 20.9689 11.681 20.8639 11.7862L20.6844 11.9657C20.5794 12.0752 20.4087 12.0752 20.2993 11.9657Z" fill="white"/>
<path d="M15.6647 19.7435C15.621 19.7435 15.5772 19.7435 15.5378 19.7435L15.5641 18.8633C15.5947 18.8633 15.6297 18.8633 15.6604 18.8633L15.6647 19.7435ZM17.6253 19.2443L17.2052 18.4692C17.2358 18.4517 17.2664 18.4385 17.2927 18.421L17.7347 19.183C17.6997 19.2049 17.6647 19.2268 17.6253 19.2443ZM13.5904 19.1874C13.551 19.1655 13.516 19.1436 13.481 19.1217L13.9449 18.3728C13.9711 18.3903 14.0018 18.4079 14.0324 18.4254L13.5904 19.1874ZM19.1876 17.7729L18.4393 17.3087C18.4568 17.278 18.4743 17.2517 18.4918 17.2211L19.2533 17.6634C19.2314 17.7028 19.2095 17.7378 19.1876 17.7729ZM12.0675 17.6721C12.0456 17.6371 12.0237 17.5977 12.0062 17.5627L12.7808 17.1422C12.7983 17.1729 12.8114 17.1992 12.829 17.2298L12.0675 17.6721ZM19.8047 15.7146L18.925 15.6883C18.925 15.6533 18.925 15.6226 18.925 15.5876V15.5701H19.8047V15.5832C19.809 15.6314 19.809 15.6752 19.8047 15.7146ZM11.6474 15.5964H11.5073C11.5073 15.5526 11.5073 15.5088 11.5073 15.4694L12.387 15.4956C12.387 15.5263 12.387 15.5569 12.387 15.5876L11.6474 15.5964ZM18.5355 14.0286C18.518 13.9979 18.5049 13.9716 18.4874 13.941L19.2489 13.4987C19.2708 13.5337 19.2926 13.5731 19.3101 13.6082L18.5355 14.0286ZM12.8202 13.9585L12.0587 13.5206C12.0806 13.4812 12.1025 13.4461 12.1244 13.4111L12.8727 13.8753C12.8552 13.9016 12.8377 13.9322 12.8202 13.9585ZM17.3715 12.798C17.3408 12.7805 17.3146 12.763 17.284 12.7454L17.7216 11.9834C17.7566 12.0053 17.796 12.0272 17.831 12.0491L17.3715 12.798ZM14.0149 12.7586L13.5729 11.9966C13.6079 11.9747 13.6473 11.9528 13.6823 11.9353L14.1024 12.7104C14.0718 12.7235 14.0455 12.7411 14.0149 12.7586ZM15.7479 12.3163C15.7173 12.3163 15.6866 12.3163 15.656 12.3163H15.6429V11.436H15.656C15.6954 11.436 15.7304 11.436 15.7698 11.436L15.7479 12.3163Z" fill="white"/>
<path d="M15.6603 16.3405C16.0301 16.3405 16.3298 16.0406 16.3298 15.6705C16.3298 15.3005 16.0301 15.0005 15.6603 15.0005C15.2905 15.0005 14.9907 15.3005 14.9907 15.6705C14.9907 16.0406 15.2905 16.3405 15.6603 16.3405Z" fill="white"/>
</svg>
