<svg width="31" height="31" viewBox="0 0 31 31" fill="none" xmlns="http://www.w3.org/2000/svg">
<path d="M15.6605 27.1661C22.0049 27.1661 27.1481 22.0193 27.1481 15.6704C27.1481 9.32157 22.0049 4.1748 15.6605 4.1748C9.31603 4.1748 4.17285 9.32157 4.17285 15.6704C4.17285 22.0193 9.31603 27.1661 15.6605 27.1661Z" fill="#3E4357"/>
<path d="M15.6604 30.3412C23.7571 30.3412 30.3207 23.773 30.3207 15.6706C30.3207 7.56826 23.7571 1 15.6604 1C7.56367 1 1 7.56826 1 15.6706C1 23.773 7.56367 30.3412 15.6604 30.3412Z" stroke="#3E4357" stroke-miterlimit="10"/>
<path d="M28.5703 16.3844C28.9642 16.3844 29.2836 16.0648 29.2836 15.6706C29.2836 15.2764 28.9642 14.9568 28.5703 14.9568C28.1763 14.9568 27.8569 15.2764 27.8569 15.6706C27.8569 16.0648 28.1763 16.3844 28.5703 16.3844Z" fill="#3E4357"/>
<path d="M2.75044 16.3844C3.1444 16.3844 3.46376 16.0648 3.46376 15.6706C3.46376 15.2764 3.1444 14.9568 2.75044 14.9568C2.35648 14.9568 2.03711 15.2764 2.03711 15.6706C2.03711 16.0648 2.35648 16.3844 2.75044 16.3844Z" fill="#3E4357"/>
<path d="M22.5048 11.9656V20.0498C22.5048 20.7505 21.9402 21.3811 21.24 21.3811H10.0894C9.38921 21.3811 8.81592 20.7505 8.81592 20.0498V11.9656C8.81592 11.265 9.38483 10.757 10.0894 10.757H11.3148V11.4883C11.3148 11.9919 11.7042 12.3992 12.2075 12.3992C12.7108 12.3992 13.1002 11.9875 13.1002 11.4883V10.757H18.2292V11.4883C18.2292 11.9919 18.6187 12.3992 19.1219 12.3992C19.6208 12.3992 20.0147 11.9875 20.0147 11.4883V10.757H21.2444C21.9402 10.757 22.5048 11.2606 22.5048 11.9656Z" fill="white"/>
<path d="M21.4414 14.4269H9.87939V20.1856H21.4414V14.4269Z" fill="#3E4357"/>
<path d="M12.3957 15.3071H10.6846V17.0194H12.3957V15.3071Z" fill="white"/>
<path d="M15.1437 15.3071H13.4326V17.0194H15.1437V15.3071Z" fill="white"/>
<path d="M17.8923 15.3071H16.1812V17.0194H17.8923V15.3071Z" fill="white"/>
<path d="M20.6359 15.3071H18.9248V17.0194H20.6359V15.3071Z" fill="white"/>
<path d="M12.3957 17.7288H10.6846V19.4411H12.3957V17.7288Z" fill="white"/>
<path d="M15.1437 17.7288H13.4326V19.4411H15.1437V17.7288Z" fill="white"/>
<path d="M17.8923 17.7288H16.1812V19.4411H17.8923V17.7288Z" fill="white"/>
<path d="M20.6359 17.7288H18.9248V19.4411H20.6359V17.7288Z" fill="white"/>
<path d="M12.2029 11.9701C11.9185 11.9701 11.6865 11.738 11.6865 11.4533V10.4811C11.6865 10.1965 11.9185 9.96436 12.2029 9.96436C12.4874 9.96436 12.7193 10.1965 12.7193 10.4811V11.4533C12.7193 11.738 12.4874 11.9701 12.2029 11.9701Z" fill="white"/>
<path d="M19.0999 11.9701C18.8154 11.9701 18.5835 11.738 18.5835 11.4533V10.4811C18.5835 10.1965 18.8154 9.96436 19.0999 9.96436C19.3843 9.96436 19.6163 10.1965 19.6163 10.4811V11.4533C19.6163 11.738 19.38 11.9701 19.0999 11.9701Z" fill="white"/>
</svg>
